<mxfile host="app.diagrams.net" modified="2023-10-24T12:32:58.948Z" agent="Mozilla/5.0 (Windows NT 10.0; Win64; x64) AppleWebKit/537.36 (KHTML, like Gecko) Chrome/116.0.5845.888 YaBrowser/23.9.2.888 Yowser/2.5 Safari/537.36" etag="3CgLXQVmBG1CXaUnSAKB" version="22.0.6" type="github" pages="2">
  <diagram name="Страница — 1" id="3wYISDnfH8heLaw9wXvl">
    <mxGraphModel dx="2258" dy="776" grid="1" gridSize="10" guides="1" tooltips="1" connect="1" arrows="1" fold="1" page="1" pageScale="1" pageWidth="827" pageHeight="1169" math="0" shadow="0">
      <root>
        <mxCell id="0" />
        <mxCell id="1" parent="0" />
        <mxCell id="nEVIxbESRNPv_ssSTg9u-3" style="edgeStyle=orthogonalEdgeStyle;rounded=0;orthogonalLoop=1;jettySize=auto;html=1;exitX=1;exitY=0.5;exitDx=0;exitDy=0;" edge="1" parent="1" source="nEVIxbESRNPv_ssSTg9u-1">
          <mxGeometry relative="1" as="geometry">
            <mxPoint x="530" y="190" as="targetPoint" />
          </mxGeometry>
        </mxCell>
        <mxCell id="nEVIxbESRNPv_ssSTg9u-1" value="запись на занятие" style="rounded=0;whiteSpace=wrap;html=1;" vertex="1" parent="1">
          <mxGeometry x="354" y="160" width="120" height="60" as="geometry" />
        </mxCell>
        <mxCell id="nEVIxbESRNPv_ssSTg9u-2" value="" style="endArrow=classic;html=1;rounded=0;entryX=0.5;entryY=0;entryDx=0;entryDy=0;" edge="1" parent="1" target="nEVIxbESRNPv_ssSTg9u-1">
          <mxGeometry width="50" height="50" relative="1" as="geometry">
            <mxPoint x="414" y="100" as="sourcePoint" />
            <mxPoint x="420" y="100" as="targetPoint" />
          </mxGeometry>
        </mxCell>
        <mxCell id="nEVIxbESRNPv_ssSTg9u-6" value="" style="endArrow=classic;html=1;rounded=0;" edge="1" parent="1">
          <mxGeometry width="50" height="50" relative="1" as="geometry">
            <mxPoint x="294" y="189.78" as="sourcePoint" />
            <mxPoint x="354" y="189.78" as="targetPoint" />
          </mxGeometry>
        </mxCell>
        <mxCell id="nEVIxbESRNPv_ssSTg9u-7" value="" style="endArrow=classic;html=1;rounded=0;entryX=0.5;entryY=1;entryDx=0;entryDy=0;" edge="1" parent="1" target="nEVIxbESRNPv_ssSTg9u-1">
          <mxGeometry width="50" height="50" relative="1" as="geometry">
            <mxPoint x="414" y="250" as="sourcePoint" />
            <mxPoint x="430" y="230" as="targetPoint" />
          </mxGeometry>
        </mxCell>
        <mxCell id="nEVIxbESRNPv_ssSTg9u-8" value="расписание преподавателей" style="text;html=1;strokeColor=none;fillColor=none;align=center;verticalAlign=middle;whiteSpace=wrap;rounded=0;" vertex="1" parent="1">
          <mxGeometry x="384" y="70" width="60" height="30" as="geometry" />
        </mxCell>
        <mxCell id="nEVIxbESRNPv_ssSTg9u-9" value="данные клиента" style="text;html=1;strokeColor=none;fillColor=none;align=center;verticalAlign=middle;whiteSpace=wrap;rounded=0;" vertex="1" parent="1">
          <mxGeometry x="294" y="160" width="60" height="30" as="geometry" />
        </mxCell>
        <mxCell id="nEVIxbESRNPv_ssSTg9u-10" value="запись прошла успешно" style="text;html=1;strokeColor=none;fillColor=none;align=center;verticalAlign=middle;whiteSpace=wrap;rounded=0;" vertex="1" parent="1">
          <mxGeometry x="475" y="159" width="91" height="30" as="geometry" />
        </mxCell>
        <mxCell id="nEVIxbESRNPv_ssSTg9u-11" value="персонал школы" style="text;html=1;strokeColor=none;fillColor=none;align=center;verticalAlign=middle;whiteSpace=wrap;rounded=0;" vertex="1" parent="1">
          <mxGeometry x="384" y="250" width="60" height="30" as="geometry" />
        </mxCell>
        <mxCell id="nEVIxbESRNPv_ssSTg9u-24" style="edgeStyle=orthogonalEdgeStyle;rounded=0;orthogonalLoop=1;jettySize=auto;html=1;entryX=0;entryY=0.5;entryDx=0;entryDy=0;" edge="1" parent="1" source="nEVIxbESRNPv_ssSTg9u-13" target="nEVIxbESRNPv_ssSTg9u-23">
          <mxGeometry relative="1" as="geometry">
            <Array as="points">
              <mxPoint x="340" y="550" />
              <mxPoint x="340" y="590" />
            </Array>
          </mxGeometry>
        </mxCell>
        <mxCell id="nEVIxbESRNPv_ssSTg9u-13" value="запись на занятие" style="rounded=0;whiteSpace=wrap;html=1;" vertex="1" parent="1">
          <mxGeometry x="210" y="520" width="120" height="60" as="geometry" />
        </mxCell>
        <mxCell id="nEVIxbESRNPv_ssSTg9u-14" value="" style="endArrow=classic;html=1;rounded=0;entryX=0.5;entryY=0;entryDx=0;entryDy=0;" edge="1" parent="1" target="nEVIxbESRNPv_ssSTg9u-13">
          <mxGeometry width="50" height="50" relative="1" as="geometry">
            <mxPoint x="270" y="390" as="sourcePoint" />
            <mxPoint x="276" y="390" as="targetPoint" />
          </mxGeometry>
        </mxCell>
        <mxCell id="nEVIxbESRNPv_ssSTg9u-15" value="расписание преподавателей" style="text;html=1;strokeColor=none;fillColor=none;align=center;verticalAlign=middle;whiteSpace=wrap;rounded=0;" vertex="1" parent="1">
          <mxGeometry x="240" y="360" width="60" height="30" as="geometry" />
        </mxCell>
        <mxCell id="nEVIxbESRNPv_ssSTg9u-18" style="edgeStyle=orthogonalEdgeStyle;rounded=0;orthogonalLoop=1;jettySize=auto;html=1;entryX=0;entryY=0.5;entryDx=0;entryDy=0;" edge="1" parent="1" source="nEVIxbESRNPv_ssSTg9u-16" target="nEVIxbESRNPv_ssSTg9u-13">
          <mxGeometry relative="1" as="geometry">
            <Array as="points">
              <mxPoint x="190" y="510" />
              <mxPoint x="190" y="550" />
            </Array>
          </mxGeometry>
        </mxCell>
        <mxCell id="nEVIxbESRNPv_ssSTg9u-16" value="обработка данных клиента" style="rounded=0;whiteSpace=wrap;html=1;" vertex="1" parent="1">
          <mxGeometry x="60" y="480" width="120" height="60" as="geometry" />
        </mxCell>
        <mxCell id="nEVIxbESRNPv_ssSTg9u-19" value="" style="endArrow=classic;html=1;rounded=0;" edge="1" parent="1">
          <mxGeometry width="50" height="50" relative="1" as="geometry">
            <mxPoint y="509.78" as="sourcePoint" />
            <mxPoint x="60" y="509.78" as="targetPoint" />
          </mxGeometry>
        </mxCell>
        <mxCell id="nEVIxbESRNPv_ssSTg9u-20" value="данные клиента" style="text;html=1;strokeColor=none;fillColor=none;align=center;verticalAlign=middle;whiteSpace=wrap;rounded=0;" vertex="1" parent="1">
          <mxGeometry y="480" width="60" height="30" as="geometry" />
        </mxCell>
        <mxCell id="nEVIxbESRNPv_ssSTg9u-21" value="выбор дня" style="text;html=1;strokeColor=none;fillColor=none;align=center;verticalAlign=middle;whiteSpace=wrap;rounded=0;" vertex="1" parent="1">
          <mxGeometry x="160" y="550" width="60" height="30" as="geometry" />
        </mxCell>
        <mxCell id="nEVIxbESRNPv_ssSTg9u-22" value="" style="endArrow=classic;html=1;rounded=0;entryX=0.5;entryY=0;entryDx=0;entryDy=0;" edge="1" parent="1" target="nEVIxbESRNPv_ssSTg9u-16">
          <mxGeometry width="50" height="50" relative="1" as="geometry">
            <mxPoint x="270" y="430" as="sourcePoint" />
            <mxPoint x="310" y="450" as="targetPoint" />
            <Array as="points">
              <mxPoint x="260" y="440" />
              <mxPoint x="120" y="440" />
            </Array>
          </mxGeometry>
        </mxCell>
        <mxCell id="nEVIxbESRNPv_ssSTg9u-27" style="edgeStyle=orthogonalEdgeStyle;rounded=0;orthogonalLoop=1;jettySize=auto;html=1;entryX=0;entryY=0.5;entryDx=0;entryDy=0;" edge="1" parent="1" source="nEVIxbESRNPv_ssSTg9u-23" target="nEVIxbESRNPv_ssSTg9u-26">
          <mxGeometry relative="1" as="geometry">
            <Array as="points">
              <mxPoint x="490" y="590" />
              <mxPoint x="490" y="630" />
            </Array>
          </mxGeometry>
        </mxCell>
        <mxCell id="nEVIxbESRNPv_ssSTg9u-23" value="сопоставление со временем преподавателя" style="rounded=0;whiteSpace=wrap;html=1;" vertex="1" parent="1">
          <mxGeometry x="360" y="560" width="120" height="60" as="geometry" />
        </mxCell>
        <mxCell id="nEVIxbESRNPv_ssSTg9u-25" value="выбор времени" style="text;html=1;strokeColor=none;fillColor=none;align=center;verticalAlign=middle;whiteSpace=wrap;rounded=0;" vertex="1" parent="1">
          <mxGeometry x="300" y="590" width="60" height="30" as="geometry" />
        </mxCell>
        <mxCell id="nEVIxbESRNPv_ssSTg9u-26" value="составление расписания" style="rounded=0;whiteSpace=wrap;html=1;" vertex="1" parent="1">
          <mxGeometry x="510" y="600" width="120" height="60" as="geometry" />
        </mxCell>
        <mxCell id="nEVIxbESRNPv_ssSTg9u-28" style="edgeStyle=orthogonalEdgeStyle;rounded=0;orthogonalLoop=1;jettySize=auto;html=1;exitX=1;exitY=0.5;exitDx=0;exitDy=0;" edge="1" parent="1">
          <mxGeometry relative="1" as="geometry">
            <mxPoint x="686" y="631" as="targetPoint" />
            <mxPoint x="630" y="631" as="sourcePoint" />
          </mxGeometry>
        </mxCell>
        <mxCell id="nEVIxbESRNPv_ssSTg9u-29" value="запись прошла успешно" style="text;html=1;strokeColor=none;fillColor=none;align=center;verticalAlign=middle;whiteSpace=wrap;rounded=0;" vertex="1" parent="1">
          <mxGeometry x="670" y="610" width="91" height="30" as="geometry" />
        </mxCell>
        <mxCell id="nEVIxbESRNPv_ssSTg9u-30" value="" style="endArrow=classic;html=1;rounded=0;entryX=0.5;entryY=0;entryDx=0;entryDy=0;" edge="1" parent="1" target="nEVIxbESRNPv_ssSTg9u-23">
          <mxGeometry width="50" height="50" relative="1" as="geometry">
            <mxPoint x="270" y="430" as="sourcePoint" />
            <mxPoint x="340" y="580" as="targetPoint" />
            <Array as="points">
              <mxPoint x="280" y="440" />
              <mxPoint x="420" y="440" />
            </Array>
          </mxGeometry>
        </mxCell>
        <mxCell id="nEVIxbESRNPv_ssSTg9u-31" value="" style="endArrow=classic;html=1;rounded=0;entryX=0.5;entryY=1;entryDx=0;entryDy=0;exitX=0.5;exitY=0;exitDx=0;exitDy=0;" edge="1" parent="1" source="nEVIxbESRNPv_ssSTg9u-32">
          <mxGeometry width="50" height="50" relative="1" as="geometry">
            <mxPoint x="270" y="610" as="sourcePoint" />
            <mxPoint x="270" y="580" as="targetPoint" />
          </mxGeometry>
        </mxCell>
        <mxCell id="nEVIxbESRNPv_ssSTg9u-32" value="персонал школы" style="text;html=1;strokeColor=none;fillColor=none;align=center;verticalAlign=middle;whiteSpace=wrap;rounded=0;" vertex="1" parent="1">
          <mxGeometry x="240" y="750" width="60" height="30" as="geometry" />
        </mxCell>
        <mxCell id="nEVIxbESRNPv_ssSTg9u-33" value="" style="endArrow=classic;html=1;rounded=0;entryX=0.5;entryY=1;entryDx=0;entryDy=0;" edge="1" parent="1" target="nEVIxbESRNPv_ssSTg9u-26">
          <mxGeometry width="50" height="50" relative="1" as="geometry">
            <mxPoint x="270" y="740" as="sourcePoint" />
            <mxPoint x="340" y="690" as="targetPoint" />
            <Array as="points">
              <mxPoint x="280" y="730" />
              <mxPoint x="570" y="730" />
            </Array>
          </mxGeometry>
        </mxCell>
        <mxCell id="nEVIxbESRNPv_ssSTg9u-34" value="" style="endArrow=classic;html=1;rounded=0;entryX=0.5;entryY=1;entryDx=0;entryDy=0;" edge="1" parent="1" target="nEVIxbESRNPv_ssSTg9u-23">
          <mxGeometry width="50" height="50" relative="1" as="geometry">
            <mxPoint x="410" y="730" as="sourcePoint" />
            <mxPoint x="450" y="690" as="targetPoint" />
            <Array as="points">
              <mxPoint x="420" y="720" />
            </Array>
          </mxGeometry>
        </mxCell>
        <mxCell id="nEVIxbESRNPv_ssSTg9u-35" value="" style="endArrow=classic;html=1;rounded=0;exitX=1.002;exitY=0.877;exitDx=0;exitDy=0;entryX=0;entryY=0.75;entryDx=0;entryDy=0;exitPerimeter=0;" edge="1" parent="1" source="nEVIxbESRNPv_ssSTg9u-26">
          <mxGeometry width="50" height="50" relative="1" as="geometry">
            <mxPoint x="629.6399999999999" y="654.82" as="sourcePoint" />
            <mxPoint x="60" y="527.5" as="targetPoint" />
            <Array as="points">
              <mxPoint x="660" y="652.5" />
              <mxPoint x="660" y="710" />
              <mxPoint x="40" y="710" />
              <mxPoint x="40" y="527.5" />
            </Array>
          </mxGeometry>
        </mxCell>
        <mxCell id="nEVIxbESRNPv_ssSTg9u-36" value="запись отменена" style="text;html=1;strokeColor=none;fillColor=none;align=center;verticalAlign=middle;whiteSpace=wrap;rounded=0;" vertex="1" parent="1">
          <mxGeometry x="660" y="660" width="60" height="30" as="geometry" />
        </mxCell>
        <mxCell id="nEVIxbESRNPv_ssSTg9u-37" value="" style="endArrow=classic;html=1;rounded=0;entryX=0.75;entryY=0;entryDx=0;entryDy=0;" edge="1" parent="1" target="nEVIxbESRNPv_ssSTg9u-13">
          <mxGeometry width="50" height="50" relative="1" as="geometry">
            <mxPoint x="630" y="620" as="sourcePoint" />
            <mxPoint x="680" y="570" as="targetPoint" />
            <Array as="points">
              <mxPoint x="650" y="620" />
              <mxPoint x="650" y="500" />
              <mxPoint x="300" y="500" />
            </Array>
          </mxGeometry>
        </mxCell>
        <mxCell id="nEVIxbESRNPv_ssSTg9u-38" value="подтверждение записи" style="text;html=1;strokeColor=none;fillColor=none;align=center;verticalAlign=middle;whiteSpace=wrap;rounded=0;" vertex="1" parent="1">
          <mxGeometry x="663" y="550" width="60" height="30" as="geometry" />
        </mxCell>
      </root>
    </mxGraphModel>
  </diagram>
  <diagram id="FoMCRWbbe0gIqpOy0_dH" name="Страница — 2">
    <mxGraphModel dx="2006" dy="601" grid="0" gridSize="10" guides="1" tooltips="1" connect="1" arrows="1" fold="1" page="1" pageScale="1" pageWidth="827" pageHeight="1169" math="0" shadow="0">
      <root>
        <mxCell id="0" />
        <mxCell id="1" parent="0" />
        <mxCell id="n3Yss2M7EZFZ4rCcTNCR-1" value="неавторизованный &lt;br&gt;пользователь" style="shape=umlActor;verticalLabelPosition=bottom;verticalAlign=top;html=1;outlineConnect=0;" vertex="1" parent="1">
          <mxGeometry x="385" y="120" width="30" height="60" as="geometry" />
        </mxCell>
        <mxCell id="n3Yss2M7EZFZ4rCcTNCR-2" value="вход/регистрация" style="ellipse;whiteSpace=wrap;html=1;" vertex="1" parent="1">
          <mxGeometry x="40" y="20" width="100" height="60" as="geometry" />
        </mxCell>
        <mxCell id="n3Yss2M7EZFZ4rCcTNCR-3" value="просмотр видео" style="ellipse;whiteSpace=wrap;html=1;" vertex="1" parent="1">
          <mxGeometry x="160" y="20" width="100" height="60" as="geometry" />
        </mxCell>
        <mxCell id="n3Yss2M7EZFZ4rCcTNCR-4" value="просмотр специальностей" style="ellipse;whiteSpace=wrap;html=1;" vertex="1" parent="1">
          <mxGeometry x="280" y="20" width="100" height="60" as="geometry" />
        </mxCell>
        <mxCell id="n3Yss2M7EZFZ4rCcTNCR-5" value="просмотр и оставление отзывов" style="ellipse;whiteSpace=wrap;html=1;" vertex="1" parent="1">
          <mxGeometry x="400" y="20" width="100" height="60" as="geometry" />
        </mxCell>
        <mxCell id="n3Yss2M7EZFZ4rCcTNCR-6" value="просмотр преподавателей" style="ellipse;whiteSpace=wrap;html=1;" vertex="1" parent="1">
          <mxGeometry x="520" y="20" width="100" height="60" as="geometry" />
        </mxCell>
        <mxCell id="n3Yss2M7EZFZ4rCcTNCR-7" value="просмотр расписания" style="ellipse;whiteSpace=wrap;html=1;" vertex="1" parent="1">
          <mxGeometry x="640" y="20" width="100" height="60" as="geometry" />
        </mxCell>
        <mxCell id="n3Yss2M7EZFZ4rCcTNCR-14" value="" style="endArrow=none;html=1;rounded=0;" edge="1" parent="1" source="n3Yss2M7EZFZ4rCcTNCR-1">
          <mxGeometry width="50" height="50" relative="1" as="geometry">
            <mxPoint x="350" y="180" as="sourcePoint" />
            <mxPoint x="400" y="110" as="targetPoint" />
            <Array as="points">
              <mxPoint x="400" y="120" />
            </Array>
          </mxGeometry>
        </mxCell>
        <mxCell id="n3Yss2M7EZFZ4rCcTNCR-15" value="преподаватель" style="shape=umlActor;verticalLabelPosition=bottom;verticalAlign=top;html=1;outlineConnect=0;" vertex="1" parent="1">
          <mxGeometry x="90" y="210" width="30" height="60" as="geometry" />
        </mxCell>
        <mxCell id="n3Yss2M7EZFZ4rCcTNCR-16" value="Extends" style="endArrow=block;endSize=16;endFill=0;html=1;rounded=0;exitX=0.5;exitY=0;exitDx=0;exitDy=0;exitPerimeter=0;" edge="1" parent="1" source="n3Yss2M7EZFZ4rCcTNCR-15">
          <mxGeometry x="-0.6164" y="145" width="160" relative="1" as="geometry">
            <mxPoint x="120" y="200" as="sourcePoint" />
            <mxPoint x="390" y="130" as="targetPoint" />
            <Array as="points">
              <mxPoint x="105" y="130" />
            </Array>
            <mxPoint as="offset" />
          </mxGeometry>
        </mxCell>
        <mxCell id="n3Yss2M7EZFZ4rCcTNCR-18" value="возможность редактировать расписание занятий" style="ellipse;whiteSpace=wrap;html=1;" vertex="1" parent="1">
          <mxGeometry x="150" y="280" width="110" height="70" as="geometry" />
        </mxCell>
        <mxCell id="n3Yss2M7EZFZ4rCcTNCR-19" value="" style="endArrow=none;html=1;rounded=0;" edge="1" parent="1">
          <mxGeometry width="50" height="50" relative="1" as="geometry">
            <mxPoint x="400" y="110" as="sourcePoint" />
            <mxPoint x="690" y="110" as="targetPoint" />
            <Array as="points">
              <mxPoint x="690" y="110" />
              <mxPoint x="690" y="80" />
            </Array>
          </mxGeometry>
        </mxCell>
        <mxCell id="n3Yss2M7EZFZ4rCcTNCR-20" value="" style="endArrow=none;html=1;rounded=0;exitX=0.5;exitY=1;exitDx=0;exitDy=0;" edge="1" parent="1" source="n3Yss2M7EZFZ4rCcTNCR-2">
          <mxGeometry width="50" height="50" relative="1" as="geometry">
            <mxPoint x="90" y="110" as="sourcePoint" />
            <mxPoint x="400" y="110" as="targetPoint" />
            <Array as="points">
              <mxPoint x="90" y="110" />
            </Array>
          </mxGeometry>
        </mxCell>
        <mxCell id="n3Yss2M7EZFZ4rCcTNCR-21" value="" style="endArrow=none;html=1;rounded=0;entryX=0.5;entryY=1;entryDx=0;entryDy=0;" edge="1" parent="1" target="n3Yss2M7EZFZ4rCcTNCR-3">
          <mxGeometry width="50" height="50" relative="1" as="geometry">
            <mxPoint x="210" y="110" as="sourcePoint" />
            <mxPoint x="260" y="140" as="targetPoint" />
          </mxGeometry>
        </mxCell>
        <mxCell id="n3Yss2M7EZFZ4rCcTNCR-22" value="" style="endArrow=none;html=1;rounded=0;entryX=0.5;entryY=1;entryDx=0;entryDy=0;" edge="1" parent="1">
          <mxGeometry width="50" height="50" relative="1" as="geometry">
            <mxPoint x="329.81" y="110" as="sourcePoint" />
            <mxPoint x="329.81" y="80" as="targetPoint" />
          </mxGeometry>
        </mxCell>
        <mxCell id="n3Yss2M7EZFZ4rCcTNCR-23" value="" style="endArrow=none;html=1;rounded=0;entryX=0.5;entryY=1;entryDx=0;entryDy=0;" edge="1" parent="1">
          <mxGeometry width="50" height="50" relative="1" as="geometry">
            <mxPoint x="449.81" y="110" as="sourcePoint" />
            <mxPoint x="449.81" y="80" as="targetPoint" />
          </mxGeometry>
        </mxCell>
        <mxCell id="n3Yss2M7EZFZ4rCcTNCR-24" value="" style="endArrow=none;html=1;rounded=0;entryX=0.5;entryY=1;entryDx=0;entryDy=0;" edge="1" parent="1">
          <mxGeometry width="50" height="50" relative="1" as="geometry">
            <mxPoint x="569.81" y="110" as="sourcePoint" />
            <mxPoint x="569.81" y="80" as="targetPoint" />
          </mxGeometry>
        </mxCell>
        <mxCell id="n3Yss2M7EZFZ4rCcTNCR-25" value="" style="endArrow=none;html=1;rounded=0;exitX=0.75;exitY=0.1;exitDx=0;exitDy=0;exitPerimeter=0;entryX=0.5;entryY=0;entryDx=0;entryDy=0;" edge="1" parent="1" source="n3Yss2M7EZFZ4rCcTNCR-15" target="n3Yss2M7EZFZ4rCcTNCR-18">
          <mxGeometry width="50" height="50" relative="1" as="geometry">
            <mxPoint x="150" y="260" as="sourcePoint" />
            <mxPoint x="200" y="210" as="targetPoint" />
            <Array as="points">
              <mxPoint x="205" y="216" />
            </Array>
          </mxGeometry>
        </mxCell>
        <mxCell id="n3Yss2M7EZFZ4rCcTNCR-26" value="возможность записаться на занятие" style="ellipse;whiteSpace=wrap;html=1;" vertex="1" parent="1">
          <mxGeometry x="240" y="210" width="110" height="70" as="geometry" />
        </mxCell>
        <mxCell id="n3Yss2M7EZFZ4rCcTNCR-27" value="" style="endArrow=none;html=1;rounded=0;exitX=0.5;exitY=0;exitDx=0;exitDy=0;entryX=0.5;entryY=0.5;entryDx=0;entryDy=0;entryPerimeter=0;" edge="1" parent="1" source="n3Yss2M7EZFZ4rCcTNCR-26" target="n3Yss2M7EZFZ4rCcTNCR-1">
          <mxGeometry width="50" height="50" relative="1" as="geometry">
            <mxPoint x="280" y="200" as="sourcePoint" />
            <mxPoint x="330" y="150" as="targetPoint" />
            <Array as="points">
              <mxPoint x="295" y="150" />
            </Array>
          </mxGeometry>
        </mxCell>
        <mxCell id="n3Yss2M7EZFZ4rCcTNCR-28" value="совершение оплаты" style="ellipse;whiteSpace=wrap;html=1;" vertex="1" parent="1">
          <mxGeometry x="460" y="215" width="90" height="60" as="geometry" />
        </mxCell>
        <mxCell id="n3Yss2M7EZFZ4rCcTNCR-29" value="" style="endArrow=none;html=1;rounded=0;entryX=0.5;entryY=0;entryDx=0;entryDy=0;" edge="1" parent="1" target="n3Yss2M7EZFZ4rCcTNCR-28">
          <mxGeometry width="50" height="50" relative="1" as="geometry">
            <mxPoint x="400" y="150" as="sourcePoint" />
            <mxPoint x="520" y="160" as="targetPoint" />
            <Array as="points">
              <mxPoint x="505" y="150" />
            </Array>
          </mxGeometry>
        </mxCell>
        <mxCell id="n3Yss2M7EZFZ4rCcTNCR-30" value="авторизованный&amp;nbsp;&lt;br&gt;пользователь" style="shape=umlActor;verticalLabelPosition=bottom;verticalAlign=top;html=1;outlineConnect=0;" vertex="1" parent="1">
          <mxGeometry x="660" y="200" width="30" height="60" as="geometry" />
        </mxCell>
        <mxCell id="ZsVCnL6KknSU9HfZcQ1l-1" value="возможность зайти в личный кабинет" style="ellipse;whiteSpace=wrap;html=1;" vertex="1" parent="1">
          <mxGeometry x="540" y="285" width="100" height="60" as="geometry" />
        </mxCell>
        <mxCell id="ZsVCnL6KknSU9HfZcQ1l-2" value="" style="endArrow=none;html=1;rounded=0;exitX=0.5;exitY=0;exitDx=0;exitDy=0;entryX=0.5;entryY=0.5;entryDx=0;entryDy=0;entryPerimeter=0;" edge="1" parent="1" source="ZsVCnL6KknSU9HfZcQ1l-1" target="n3Yss2M7EZFZ4rCcTNCR-30">
          <mxGeometry width="50" height="50" relative="1" as="geometry">
            <mxPoint x="590" y="270" as="sourcePoint" />
            <mxPoint x="640" y="220" as="targetPoint" />
            <Array as="points">
              <mxPoint x="590" y="230" />
            </Array>
          </mxGeometry>
        </mxCell>
        <mxCell id="ZsVCnL6KknSU9HfZcQ1l-4" value="возможность просматривать личное расписание&amp;nbsp;" style="ellipse;whiteSpace=wrap;html=1;" vertex="1" parent="1">
          <mxGeometry x="717" y="280" width="110" height="75" as="geometry" />
        </mxCell>
        <mxCell id="ZsVCnL6KknSU9HfZcQ1l-5" value="" style="endArrow=none;html=1;rounded=0;entryX=0.486;entryY=-0.011;entryDx=0;entryDy=0;entryPerimeter=0;exitX=0.5;exitY=0.5;exitDx=0;exitDy=0;exitPerimeter=0;" edge="1" parent="1" source="n3Yss2M7EZFZ4rCcTNCR-30" target="ZsVCnL6KknSU9HfZcQ1l-4">
          <mxGeometry width="50" height="50" relative="1" as="geometry">
            <mxPoint x="720" y="280" as="sourcePoint" />
            <mxPoint x="770" y="230" as="targetPoint" />
            <Array as="points">
              <mxPoint x="770" y="230" />
            </Array>
          </mxGeometry>
        </mxCell>
        <mxCell id="ZsVCnL6KknSU9HfZcQ1l-6" value="Extends" style="endArrow=block;endSize=16;endFill=0;html=1;rounded=0;exitX=0.5;exitY=0;exitDx=0;exitDy=0;exitPerimeter=0;entryX=0.833;entryY=0.167;entryDx=0;entryDy=0;entryPerimeter=0;" edge="1" parent="1" source="n3Yss2M7EZFZ4rCcTNCR-30" target="n3Yss2M7EZFZ4rCcTNCR-1">
          <mxGeometry x="-0.6418" y="-215" width="160" relative="1" as="geometry">
            <mxPoint x="520" y="230" as="sourcePoint" />
            <mxPoint x="805" y="150" as="targetPoint" />
            <Array as="points">
              <mxPoint x="675" y="130" />
            </Array>
            <mxPoint as="offset" />
          </mxGeometry>
        </mxCell>
        <mxCell id="ZsVCnL6KknSU9HfZcQ1l-7" value="администратор" style="shape=umlActor;verticalLabelPosition=bottom;verticalAlign=top;html=1;outlineConnect=0;" vertex="1" parent="1">
          <mxGeometry x="384" y="355" width="30" height="60" as="geometry" />
        </mxCell>
        <mxCell id="ZsVCnL6KknSU9HfZcQ1l-8" value="&lt;font style=&quot;font-size: 11px;&quot;&gt;возможность добавлять пользователей&lt;/font&gt;" style="ellipse;whiteSpace=wrap;html=1;" vertex="1" parent="1">
          <mxGeometry x="230" y="390" width="110" height="70" as="geometry" />
        </mxCell>
        <mxCell id="ZsVCnL6KknSU9HfZcQ1l-9" value="" style="endArrow=none;html=1;rounded=0;entryX=0.25;entryY=0.1;entryDx=0;entryDy=0;entryPerimeter=0;" edge="1" parent="1">
          <mxGeometry width="50" height="50" relative="1" as="geometry">
            <mxPoint x="284" y="390" as="sourcePoint" />
            <mxPoint x="400" y="381" as="targetPoint" />
            <Array as="points">
              <mxPoint x="284" y="380" />
            </Array>
          </mxGeometry>
        </mxCell>
        <mxCell id="ZsVCnL6KknSU9HfZcQ1l-10" value="&lt;font style=&quot;font-size: 9px;&quot;&gt;возможность редактирования информации сайта&lt;/font&gt;" style="ellipse;whiteSpace=wrap;html=1;" vertex="1" parent="1">
          <mxGeometry x="460" y="390" width="110" height="70" as="geometry" />
        </mxCell>
        <mxCell id="ZsVCnL6KknSU9HfZcQ1l-11" value="" style="endArrow=none;html=1;rounded=0;entryX=0.5;entryY=0;entryDx=0;entryDy=0;" edge="1" parent="1" target="ZsVCnL6KknSU9HfZcQ1l-10">
          <mxGeometry width="50" height="50" relative="1" as="geometry">
            <mxPoint x="400" y="380" as="sourcePoint" />
            <mxPoint x="510" y="390" as="targetPoint" />
            <Array as="points">
              <mxPoint x="515" y="380" />
            </Array>
          </mxGeometry>
        </mxCell>
        <mxCell id="ZsVCnL6KknSU9HfZcQ1l-12" value="Extends" style="endArrow=block;endSize=16;endFill=0;html=1;rounded=0;" edge="1" parent="1">
          <mxGeometry x="-0.3846" y="480" width="160" relative="1" as="geometry">
            <mxPoint x="400" y="350" as="sourcePoint" />
            <mxPoint x="400" y="220" as="targetPoint" />
            <Array as="points">
              <mxPoint x="400" y="350" />
            </Array>
            <mxPoint as="offset" />
          </mxGeometry>
        </mxCell>
      </root>
    </mxGraphModel>
  </diagram>
</mxfile>
